<mxfile host="65bd71144e">
    <diagram id="r-vvnA9wsGyb6zw2ZPp8" name="Page-1">
        <mxGraphModel dx="800" dy="611" grid="1" gridSize="10" guides="1" tooltips="1" connect="1" arrows="1" fold="1" page="1" pageScale="1" pageWidth="850" pageHeight="1100" math="0" shadow="0">
            <root>
                <mxCell id="0"/>
                <mxCell id="1" parent="0"/>
                <mxCell id="2" value="" style="shape=image;verticalLabelPosition=bottom;labelBackgroundColor=default;verticalAlign=top;aspect=fixed;imageAspect=0;image=data:image/png,iVBORw0KGgoAAAANSUhEUgAAAggAAAD/CAYAAACU9C7rAAAAAXNSR0IArs4c6QAAIABJREFUeF7sXQd0VFXX3TOT3kMqEFoSEnrvHaR3EOmIUpSiIihIE5EiH0WKCIoiiKKIghSR3nvvNZQkEEgDQnqdmX/tE5IfFSWEDCTkXhYrk8l79923bzv3lH00Jcs3MkIVhYBCQCGQRxDQGo2omRSNw9ZOUItXHuk01cw8iYDG07eJmmN5sutUoxUC+RMBndGIrrFhWOngCQM0+RME9dYKgeeAgBIQngPI6hEKAYVAziFAkaBYaiKCza2VBiHnYFU1KQT+gcA/BASNRgOj0QiNCObpn+XTw++zguHTXJuV+tQ12UPg0X74t8+Pq5nXZpSMjxwGj37OGBdaLccIZJzwM4vBwPGT/jl9LGnk3odDST7zGlUUAtlFQAvjE7UHT7sOZYzTjDGclXXv7+vkv71PRt0c9xnzhNKN4W/rK//2uLmRcU/GXPv/+fn/czVjTmYXU3WfQuDvCPxFQHBytMfwoX2wcPFKFCnsgYrl/bF0+TrUrVUJVSuVxoJvV0KvN2Qu+oAROp1O6kxL08PcLP1zw/rVERZ+F5euBMpkSE1Ng5mZTpSB/Ky2hqcbiMSQOGuIoMYIowFI0+thbm4mfSHYy2f2Q5p8Z2dngw/efR3fLl0NKytLvNGrA2bNXwY3V2f0690R0z5fjLj4xH80pFBBN7Rr1RAWZubYue8YihXxROWKpXH1WjBi4+Lh61MM8QmJWLZ8HUr6FkP9OlXk9607D6FFkzq4ExaBGzdC0KJ5XRRwtMcPv2xAz9da48Kl6wi6eQftWzdE5N0o7Dt4Elev33w6INTVCgEAOhjRKTYcv9t7ZAoJXF/SN18tDAY9ypcpCR/vItiweS9SUlJl/eHfMtciHngoyD5cnwhs725t5Jrk5BRE3L2PqKgYtG5eDzPmfo/UtLTHYs910cHBDvsPnsqsi88S4YL/NJD516trG/n7qdOX0LZ1Qxw+cgbeJbzw65qtcHVxlnWV7R4yoBsmz/wWERH3Mp9XvGghtG3VELdCQmFrY41fVm+BwWAQwbtdq0YIj7yLcqV88cvqzTIXVVEI5BQCmQICB1untk3QtHEtHDl+Dnfv3cfrPdrjrWGT8fHIgXBwtMe7H05DjSplUaCAIywtLZGWmobq1crC2soK6zfuwasdmiI1NVUmRGhoJKysLKA3GPDn5r3o17sTDhw9jRW/bZIJ+KzFU+OSvmHmwZKMFNw3xmS55ZXK+2PYkF7ytvejYpCckoo/t+xF6+b14VrACavWbUOHNo3hU6IIhn00HVeuBqFJwxro3bUNAq4HY8uOg5g5ZQSGjZqB6lXLom+PdujUaziSklLQoG5VWJibIzziHo6dPI8K5fxgaWGOcqV9ERh8G+cuXsP0ScMw9tP5uHsvCp+MGYSly9cjKPg2alQtj7v3ozDg9U7YtO0AalYrj9NnryDy7n14uLug+St1cOzEebRt2QBrNuxEXFwCKpT3x8rVmxERcR/JKc8+DrIMorrwpUGAAkLruEj8aeeWKSC83qMt4uOT0LlDUyz5cQ2GDuwuwnRY2F1MnvEt3nmruwgKnAtD3+qOo8fPw9OjAGxtbbB42e8iwE4ePxTbdh2Wz91ebQE7W2uUK+OLqTMX43JAINxcnFGjWnnZmCMi7+P4qQto3qQWXF2d4etdVObNn1v2YVD/17Bl+0ERLoJDwnD1WhDCI+4jISEJzZrUQml/b/QeMBaFC7mjUf3qcHd1xtyFy9G5fVP4lyyOnXuOYvvuw5n9Vb5sSTRrXEvq7tTuFcya970cEGysrfDFzNHSjuCbd/DgQSwOHTv70vSzepEXj0CmgEDtwU/fTcOpM5dlkK5etw3161TFsVMXULGsH6ytLTHsoxmyIX34Xl/cvf8AVpYWMDc3R0TkPRTxKoide47IwO7epZVsOkaDQSZcmxb15eT66f8WieT7rEUHLb4xHwsbjdWzVvVC7j9huIzP036CMYu6lMoVS6FdywYIuhmK46cvomeXVti9/xheaVgLPPHzVPTV4l8x8I1XMW/hcgTevIMvZnyEu/ce4JVGNTHxs6/Qv08n7DlwHCWKF5YFqke/j5CakiZCHfsx+FaoLJ4s1AqwzyZP/wY1q5eHm2sB2dS9CnvgtU7NMefLHzNxY7+++3YPrFi1CVEPYtClQzMcOHIa12/cwhu92iM07C5OnLmEsqV9MLh/VxEYLgcEicbjhxV/vBD81UPzPgLmRiNSHzGFFSnsiYljB6FAASfcvBWKgKvBsmaFht9FcnKqbOQUXinQ1q9dGfsOnUa9WpVw5WowDh09g1NnL4uAwHInNFLWt95dW+Py1UCkpRkwfvJ8FPJ0Q8tm9aDVaHDrdphozbhxu7kVQI0q5XDxyg2Ehd9Dw/rV8NHHczCoXxf89OtG9OraGr//sRPDh/TGkuVrMeXjd0RAKODsiP59O8HDrQBGjp+DeTNG4dDRs/DzLYZRH8/JNO9SQGjxSh0REN7u1wWjP5mHpKRkaeuQgd1w/uI1EVjq1qqI735Ym/c7V71BrkEgU0CgGaFTuyaYu/An9Hitlajf9Ho9Gtarhq07DskCP2LsLBm0s6aMQHRMHI6fvICCBd0RGBgC5wIO8C7uJZK2p4crtBotHB3tcPnKDWi0WtmUps78NkcEBC006KhrBHOY5Rogn6Yhd4yR2G84k3UBoUIptGxaRwQECmyvd2+LlNRU3LoVhlo1KsjmHvUgVjb1keNni5lhUP+ucirp2LYJ7O1s4edTFEkpKbgVEoZqlcui/zufIDY2XhapDLXqg+hYlC3lI9oKmpYCrgWjS4em2LBlryyarCsmNg679x1H0SIFUca/hJymqlcth1u3QhEXn4DixQqL6YCCi52NtTzTycFBzAp2dtZyPYUGjqNlP69/GtjUtQoBQUALoFxyLM5Z2v9FxP55yf+wY89R1KtZSYRPasOoGaPavWqlMtiy4wDi4hLR7/WOIlBTs3Xq7BUxn90OjcDEsYOxefsBHDpyRjZinvj3HjyBd97qgU+mLpRTu7OTg7SB2ogH0TFo3qQOXF2d4OdTDBu37Rct2Zu9O2LcpPmYMel97D14EkW8PEUjt2HTHpmrkz4eimmzvoOfb1FZR5s2qoXf1m5DuTI+WL1uBz4a/iZ+/GUDrt24iejoONFidGzTGNt3H0HLZnXx/U/rEBZ2D0nJyejdva3MO75DxXJ++Pm3TWqUKARyDIFMAYHqKtrI4uMTYW1lKWYCbkJWlpYirVpYWuDBgxhZ2B3sbaUBnHjpE0aDmJg4scVRuub3vJ/aAtrjuHnZ2ljJZFDl6RGwsDCXUz4XqJSUNMGSphv2GUuxIoVEi/De4B6YOO1r8f+gujM2LgEW5maws0vvL4PeIMKDlbUl7t+PznSQerRFtrbWIlBQOIyNTUivJz5B+tLB3g7JyclISU2TMZCYlAwnRztpU3x8AhwdHeQ+jgUnJwfotFrcj4qGk5O9CAby2cEeWp0W9/j8HNAmPT2a6o68jsC/hTlyLYqPSwDHcALXLHNz6A16GWc21tYyHmNi42FjYyXaLgrH9O3hukYfA0cHe1nraPpydLCT8U1BgJ+58XPO/b1wnaOPEOeJmZk5YmPjZP18EBOHj4b3E3NHYmKytInzLzk1ReYy/YgMRgMolFOY37bzEG6GhMq1fF6JYoXBeX/0xHmYm5nB2dmBLl9ITEoS017A9SDcCgmHhYWFaEqouduz/7gIFaooBHIKARXmmFNIvsB6SvmVgE8JL/FPOHrinDg8qaIQeFkRoC+Ob0oCrlnYZNFI92KQoAbj7PmAJz6c/joU9unzk1EsKUQYjSKg/L1QAKGQTmGchYe4alXK4Mixc//qTPnERqgLFAKPQUAJCGpYKAQUAnkOAXOjAakaGhtUUQgoBEyFgBIQTIWsqlchoBAwCQKMYmgbF4k/HoliMMmDVKUKgXyOgBIQ8sAAoC2Sdkn6c5DrgKGktKW6uxYQPxHa9j3cXWHQ63EvKlr8EegvMGH025izYDnMzXUYP3IgTp6+DFtbKyxetkYiUX5dswVnzv27CpRRC4wNX7RklXAjsM6Aa0GwsbFGiWKFxPdh7KQvYKYzw8hhfcV+e+DIGfgU9xKn1pNnLkmcd//XO+Hk6Uvw9HCRcDCGSMbGJ6J8GV9cu3FLvLPpG6GKQiArCFBAaBMXiQ3ZFBAa1auG+MQknDh1kVReEqVDDgWG8TKigPHEDAHmT/oNkMyIIY86rU78qN7s3UGcCO1sbRAeeU/mm/g/xNP/wQYJiUkSKVGiuJeMa3KSbNq6XyINOG8Z+dOza2vxa7h2/SYuXL4u5kFPdxcJYb53/4HAQD8fOne3al4Xcxf8JM+Lio5B3x7tsXHbPgQF3wGjz6ytrZCSkoLUNL3wJNCRmN/TMZjmmMKFPDB0YDd89d2vuHU7XHwk6NjI96aZgvOTc5DmEEYXubsVkLZVqVQazZvUxufzfxCfpdd7tkdBD1fhU6Ej5qkzl3DyzGUM7v+aRL8xeol+H25uzoIJw9npe8EoEvpacP537dQcv63ZKk6hTo4OiI6JFd81M50ONKvQMZSRV64uToIL+SWIA9cWcwtzCa1nmD37h/d6uruKr0iH1o2wces+6A3Gh35vMdIn/Ft0dGxmu+iY3bpFffj7Fpf3oqPnsMG9xG9rzR87Zc2kIzcjSabNXiLf5+eiBIQ80PsMc2LIFBcXemXT6ZBcFZw4NauWx7lLV+FSwAlc+Bgude1GMFo0rYe2LeqL8EACFU6Cd0f+D+8P6S0Tu0XTuuK09eH42eJYynBHCgRcMMhVEXE3Sry8uUBMmfkN3n27JyZN/xpTP35PhAKGbnEBWLFqM6pWLiPhj9t2HESdmpUwfc5SjBs1AJ9/8YMsMoP6dcWyn9cJL8Inny3E6OH9ZRGio9jeAyeEzEY5LOaBgZiLmmhlNCApmyaGLh2bITkpBZu27UfFCv7w9y0mZEX0AShTykf8eUjqRcdabrJ0AtRptOJUyE2+ZvUKsvFTuL4RFIL9h05hzAf9sXPvUdm8N287gHq1KwlXDAV2Zyd7XL8RgkIFXfHJZ1+hoKcbhg/tLZtmePg90IfoUsANcfZlVNKEKQskwujTcUMRFnEXlcr7IeDaTZw+exlFvTwlUohRGucuXMVHI/qJEMD5RB4IRlZ4FfLAuQsBKFumpISgc5716NJK+BW27DiEhvWq4vKVQLi4OIlAUbtmBXyzdDX2HTyBnq+1ESdoX5+iuB4UItFJW3ceFhK8SeOHyAHl8y9/wMC+r8LNxQnLVvyBzz55D3MXLJcIEGLLjb7FK7UlnJkbP4WKrbsOwdnJEU0b1cD4yQvEIXP8qLcw64tleG9QT3mvE6cvwde7iNzDyLcDR05hzfod6NzuFQk7Lc9weysLcXCuXqUcjhw/K4cVnU4r70xHz3JlSopzZ8idcNStUQnT5y1FyO0wfPR+PxHmuPHTt4N9t/L3LShc0F04YoJu3sbMecswffL7ciAaOrCrEGRdvHwjF436598UJSA8f8yf+onkQWjdrJ4sWsdOXsDrPdrJZGf4E0/hnExkuaQQwYkaHBKKuf8bhTPnA9C9cwtMmvENhg3uKVwFlPBJznL46Fm0bdUAw0fPFM4CCiGOjvayUTNenKyJ1Fh8POotfPnNLxIyxvDV2tUrYPzkLyXUddSEuSKA8ETSt1cHuLs5y+Tbtfc4qlcpi/mLfhaBhPUEBt0WToVxk77EuA8HSMjWhUvXMHXCuxKaqSJcnnpY5NsbxEkxNQHXzLPnpNikQQ3cCYuUkGyG9HKT5Kndx7sojhw7KxsMw30ZbUNGQzKV3n8Qgzo1K+LmzTAJa+S9xYoUxPqNu2Vj69WtDcqV9kGZUt44dvIiEhOThCzsRmAIChdyE3KxcSMHYugHn0nEw3uDeohAwLBMkjzxeWv/3CVRFdy4WBjuuHDxrxj53uu4ey9a2E+5qXJuLvlxLW7ficCnYwcLSRnfqUK5klj352706d4Wbw2bhK/mjJO2fzhuNiaOGYSbIWHYuHW/cDfwZM8wY3IozJg8HMt+/kPeadrE9zBj7lJ8+G5fXLoaiIOHT0vYMuvu2KaJaAa4DhUvlh45RW0IoyzICUEBgQcEhlsyHJN1HzxyWoQGslLO/vIH9OnRDitXb5G2/O/TYfj0f19j9PB+IiBMnbVYOFUsLc0lFJqCFrUSJX2K4q03u8g6Q43Bzr1HJEquVMnimDX/BwnH5tpH2ko+J+jWHREq2H9jJ34hms+lX03C62+Nw9gPByAhMRF79p3Arn3H0LVzc1R4uPYdOHxaDkRff/ebEFLtIK/Prv8nrMqPE04JCHmg1zMEhMDgOzh68jze6NleJPkTpy+gx6uthDyJpgbGSg8ePlXUcP37dsbHUxagXasGwrDISUYNQkEPN4wbOUAWKjIxMkSLqjUW4Z1hXoWHmGQICBQ+WjWth6uBwahWqawsiqRunjjtKwkVI2Mm1Y/kPdi19xhqVCuHYycuyASsUbWccDhcD7wlJyfyODSqW01oZtes34nGDarLAkZVnyoKgawg8KzZHCkgs5Duu16dyiha2FPMdjQz0Czg71sUl68GCWEcVdkUmsMi7sPezlpO9iRGun0nHJcCgmRjW/jtSjmZfvPFBBHcdWY6hIffFf4DhnhT1f3t96szBQRuqKPef0NMEdt2HpZNiqHh3PALerjg2+9/l9Di2Z99KJss5xCpn//csh9VKpaS+blxy16hsifpErWKPCwwBHLH7mPo3K6JbG5kcrwRdFtCHzk/ecIODYtEk4Y1ZTOnhoTagkrlS4nJ5PCxs0K8lJCQKKyo1Dacv3gV1wNDRBD5hWRo0bGYOXkErt64KYLM+A8HYPP2g6JpYZ3zZ47G/sOnMPD1zjh+5hL2HTghAgJNj8lJyelaxKkLhQ9i8vgh2H/otKwPxOhRAeF2aCSOn7ggjLGWVpb4YdEUqZfaBR4mPD3cEBcXJ2GhNFFQa8HDE4UTahQePIiDt3dhERCEu2fqBzhx+iLq1qwkAsSRo+ew58AJfDL6beH+oQaW70gzzWezvkW/Ph2xdsNOHD52LitD8qW95i8CAtVUjN2d99VPwphIRj2q3bgB/Pr7VlFpZyQLYSfY29uKFEm1G+1LJEdqWL8qQkPvykZQwNkBd+8+gIMD4/A1MpBVQpGnH0s84dCmyPhs5k8g5SvV+4ULu8vPol4FRaKvXaOCsKwJl4W1leDN8KmCnq7Sb+xLezsbkaipguNJiarVO6ERj20UFxDSwVINyjhsstVRWqd6lROapzB+xxONh4eLnCSuBAQJSRJVq7RjsvAZXIBZH8m0qM7j6YlCC08SGTbXp0dG3ZEfEfg3oqSsYkFbvq9PEaFUplBAFT/zIJB9kWOyTcsGOHsuQFgYqb+nloz+PuQhoY2c459aO5cCjqKq50ZPQbukdzFRhfMEzFBjrpEc+9xwafvnXKLfAAWOdOEjWa53cXYSW3fpUt7yHecY10nOW3c3F/FtoHmR91+7fks2Qz5DNAjjhsiJfs++Y2Lrp28B66c2hORJnHM0F+jT9DLnya/AdYS+PzStxCckiWBBRlzSNfOUTjxo2uA6wnBKrvHEheYUaiRI8MT5y3lcyNNd2kxsaDLhHsL5z41bNC9RD1DA2UnU+yW9i0p912/cRFJyimhYyE5J/wv6SfF9qKVkm/l3+l3R54l9xHwUD2JikRCfKDhRoAoODkWZ0j7CPcH3oGaGaxq5IcimyTWL/gTEktwXfr7FRbCjloZ9wnuYc4j4UfAgTjwUEV++M4Wz/G76/Esuhp6vtRJVUmDQHRmkBH/3vmNoXL865i9aIc4dpfyKIy1VL5ODQJqZmYlzSL3alWVA0T52JSAQ5cuVFKY/blTMJTD7yx/lRJkTgPOky86mCikvlrjYeFkwcqrQual8OT9x/lMJkHIKVVVPbkbg71TLOdlW2qWpkeOpOLcXrsekVOd/VRQCOY1ApoBAye+nxdNEDUPplion2tjIz89MZLQVUaKjQwolMqq8KHFT3UNJ9OyFq9i686ConqlpoBMJEwd9MWO0SHX9h36SY3ZmSnlnD60SDUZeLNt3HhaqY5XyOC/2nmrzi0aAUQwt4u9is63rE1M+v+i2qucrBPIyApkCAh1wmAGQHuh0gqMahpSgdNyg6pohMlSb0UmGpurDx8+Jyogq4rj4ePiXLCHqHNrkKH2T+5yJR+i0Q+GDznBURedESU9z2lBCcvJioR2Q2JjK3MKoBIZbUd3IZ9BEQVMEw62IHT8z/IeCHOmYn6TV4f28njkbGO7FejNSTNOslJGVkfUzMoL9TOFHnpuSAksLCxES+VyqY6l5YvgYNUA0gTAsS7E/5sWR/GLaTAGhY2wE1ti7P5OAQLUzxynHItcslkcZDLm+ZOQpefRNOcbpJEc1t1zzyBz4OyI0ZzAyiHOMIYw5WTLaT/PB39NRs138T5PIvxWaReztSCmdJIyNfFfOR85vzlfOXxaq43O67TmJg6rLdAhkCgicGCxcxDk4OLhol6FDDL/LSNFMGxULBxQ3BA582nLo7EIvt4zc61zwaROik4+FhZnYzk21IZoOntxRMzd1ak00DOsyGgVH2vzYT8yYycVBsmeCHAlp4vuxcM44ycZIvwM6DtHEQxMS7a7M0rnkh9/xyZjBGPPpF/9JB0ub4JxpH4rDY78+nWTxoE2WjlR9e7YT2+iqtdvER2L0iH4iHKzbsBvXAm9hyYJPxZ+lVfN6CLgaJM8+d/EqRr3fD3v2H0Ot6hXEJkkfiAxHydyBuGpFbkfA0mhAcjbDHGmi5HwZ/UF/yV9A59+QkDDxN6CzIdczjkn6YNHGzkymdDzk2ka/Au9iXujbq71E89DJlv4Ja/7YgTS9AUajQTZarn+ctwtmjcHFgECp74+Ne5CalirPNjzkMyHO9N3hZk2+Bd6bsYbyM+czn5lep17WAK0GIqBXqVQGVSuVliySzEhJQYfPZE4dJt+rX7sqZsxdkrkuZ6y/fD7flRpihhgy1JBOgyV9i4qj3qD3p6J+7SoSqslwQPIO0BFTlfyHgIpiyAN9XqmCP95641UkJCaLkw1Di9Zu2IWK5fxRsYKfRAzQoYkeuuQ1YJzwV3PGYte+47hyNUjSzI6b/CUa1q2KX1ZvwezPPpDvM2K9GVPNBaha5TKy0VNbQA9vnpTod0IiFWbinDLhXUycthAjhr6OmfO+x+ABXSWd98+/bpTTBp2o6OBEsxN9VF7v3g5zFi4XQYL1MZySAuW7g3pi0dJVorGa//UKWZTeHz0zM4VtHugS1cQXiAA1mEVTE3HT3DpbuRheaVhTfKka1q8uPBzUhF65GigbIZ3mjh4/By+vgnLA4WZNHgR61XM+0J+KDn4UnGlCpQc+Q+LoaMtNlh7/lcv7S1pn7sL0vmc4LwV8ettz3pJEjPkTOO/o+MesjxevBKJB3SoSd89wQ3IH0DGQGj4+i06/PJzR6ZE8JjzV+5UsLoevB9FxwgNAczBD9khUROdwhjLSLyzkdrhwIfy2dqtEOzADJSMDSKxGzof3P5op2pDxowYKGRO1mxRYmPWVHA9sBwV9VfIfAkpAyAN9/rgwR4YkdWzXBLbW1hIiOG/Bcgx441Us+OYXRN57gDn/+1DYC8uW9pWTxcLvVsppgad4/icx0tXrwbIIDHhnoqj+abZhnDG1AMtX/inI0Lv52/kTMGXGNxLS2LhBDVSvWhaRkfcldImnseW/pF9bpWJpvNGzHaZ+/p0QKZUo5oWff9uIk2cuSqY8cifQE5mLIOPDa9esiC8X/YLPp34gYZfUTqiiEHgSAs8a5kjWzxW/bcabfTpI5tGA6zfRpnl9ifA5cvy8hCfeuh0mGzF9qgoVdMfe/cflJE6T6aT/LcLQt7tj5LjZaNakNsLCI0VYp/c+2RbpgT93wY+iEVj29RQJFQwKCRUBnhtxakqqRPj8uXU/Ll25gc8+eVeIil7v2U5IwxhpwGgfmmnNzHVCFsSIpDYtGohT+OJlvwu7oouzI26HRYoZgad9sjWSII3OyiSBYipoXkNGU/KQrNmwE/37dML1oFuiaaBjOSUsEqExEmrJV5NEICjtVwLr/twlJsCVqzZj0vihGPXxnCd1i/r7S4iAEhDyQKdWrlAKLZrWkRP/8ZMX0adHWwl9oqrQ36+EnIIYBkQNALkOaAKYPul9iWOuU6OCaARIksQ0sVxcWF/DetWwdPla0UyQ0pQLirW1Ncx0ZIwzZoYo0tT01ZzxmD57CRo1qC5UtPGJiTh4+AwqVSglNkuSmfAENe2T9yTq5fS5K4IqyU3WbdglbIpsA08xJGFq0qC6xGdzIaRQwNMRtRDKBJUHBmMuaKIWRlRNisFxK8dsaRDq1qqMhnWriIqeJgbG9FevXFY275iYePGb4dhkeHbk3QcS8n3lehAiIu4LuyijG2j/HzFmlhDrUINAOz4Z+IYP7YMNm/fgj017BCma2WLi4mXjpS/Xhcs3ZANmtBHj7Bkizg14yQ9rhGyJREa8jjwE/Fu6L4CVaBKoDaBWYOmPa4UJlabE0+cDhMeBxGQMlSShE7UgNP2lFyMuXLohXAhsg3/JYnitY3PxoThz7opoIUjA1KF1Yzg42op5kCROFHJYD53WmcZ9/tc/54KeV0143ggoAeF5I56N59EGSadRbqC0bTJmmM5VVIGS34DkIFbWlrJQ0RTA0wYdTOmbQNMBTwskT+KJgDZN3k/1p3w2MxOb5ePSymY0lYsJud6Zc8HcwkxMAWwHfVR4qtLpNNCnGWTRoW2TdfF/Rht4quJ9jI2miYHPJG0tnbuEfz0x6YmOktmATd3yEiNA7yi9uEs/fckgCMrIayK2f6FSNopGjN9zzpFemM55/Fv6+E2SMc9TPP0BuIlK3LyFhdzLe8g8So5/bu4sNAukz680Eb7pOySOkAaj1Ee/Id5TsSAQAAAgAElEQVRP34T0etP9CGg6YDvoSEyBgZwB4RH3sXnbfvHbSfdJSp/XzFHAz/RNSE3VyzxnW+inQIRYLwWYDEdgmkw00IggxHWFc5UHAa4pfC9qDXVa+j2ZZealULlSnn6cvQx3KAHhJehFkhZxIeFipsioXoIOVa/wnwjk1jBHCsROTg45Oge5gTNHirA5ht8VoV4VhcDzQkAJCM8LafUchYBCIEcQeFYfhBxphKpEIZAPEFACQj7oZPWKCoGXDQFrowGJ2QxzfNmwUO+jEDAVAn8REIp4eWDSuKH43+wlwmPNWNhzF6+hkKerZA9jYRiMk5O9hM5kFGYS696lpaQpfW9wL3F+Wb1+uyQSYbILOuOUKF5Y+LHJ3R8dm86+SJIlJjOpWK4kIu9F4/XubbFo6W/iLc9C4iVf76LixEae8PzqxEa+CXoj09GPzlEksjp05Awa1KuKeQt/kt/5/ZQZ3/7rOGG8dNEiBcV5isRVXTu1ENKjVeu2SWgW088y5zufxUQ1VGuSj5720rKlvCXF9Op12yXSgfczKU21KmUlhz3jqJmXgaVY0UJ4tf0rYj/9dc1Wif9u37qRjJnCnm64EXwbRQp5oGgRT3w0YZ44Wfbv01GcKJkxkmGW9MZmCGR0TDx27Tki2SmZbpoJnzKcv0w1IVS9uR8BSW+sT0G4Lp27RRWFgELANAhkCgh0Znv7zS5wcXEUZzJ6oteuURHHT11EqZLFJOMVHVlqVi0vGdAYv06vX3rZTvjobXFQY2pPevVy0589fxkWzZuA1et34Kdf/xTv3t/Xb8cbvTuIkMHQG4bF0ZHm7PkASfbEWF6G+VStXEYcZ+i85l28MD6f/6Mk/eCmI0UDJFeMBnQZX5gGHFPVqn1gDvPrWaeJzghzJPkQnZ4Yuvjnln3o2LYxZs37Hh+PfhtXr93E9z+tE052Zm9kBjU6Kp04dVHio+noRNIq9mu3V1sgNSU9yZa9g61kYPxswjsiBJJKm4m2KARcuhyIwKAQSWLCbGcrVm+SjJHkqqdD05+b98gGT49sZnJjoTBAUizmbacH1p9b9wlvA9nexo4cgEtXgiT9rb9PcYwYPwsTRw+Cs7OjCDwMiezauYU4QWakf2YCGKZcZT57ktCQx0GV/I2AMjHk7/5Xb//8EMgUEBjrS1IPhv1wQ1qxarMs7Bs27ZFwNbLy2dhYSrpOhtN9vXiVxNNyMx//4UDJxcDMWNyyeZqkhy5/ZzpPCghNG9VCp3aNhWSEgsdX3/0GC3MzvNm7Az4Y97k44Ix87w3JOEZHOzrjMBSPG8Xchcv/iojOiPC5Z2G01j8/pHLwSVZnnOD0pff/51V+Qt1/FxCYEIthUSPe6YPIe1ESw8xNNTzyPv43+zsULuiBpo1qSgTDxYAbsvk+KiB07dRcvKlFQLCzkXzyZJArXMgD77zdHZ/PW4ZLATfw/pA+IoxxDJCKm2GKDJ+iAFLa3xsrf98sOdkvBwRJPngWhoGx75mki8xy9Lpm9sjBA14TXgYyzx08ehZtmteT9jJ9LlnfGE7FWPBur7aUMcjwSWoomFGNvysBIQcHYB6vik6KTeLvY4dtgWeiWs7jMKjmKwRMjkCmgMBFunLF0vhq8a/o1K6JqHq5efDEyRzp3/+4VkJ5SCLCON6MDYELN00HPHVyw+Imw7j81zo2E/Y8mhFIulHQ0w2L53+CKTO/ReUK/kLmwzA9Gxtr4UG3t7URNTkJgKhZoIAQcidCYn0zzBuZaJBq1CsRyJvJHKFJ0EIXmU5ZnZXCVM6D+3eVGO3LVwOFrXDv/hNo2rimmF0W/7AGiQlJmDzhHYwcP1vipf9eMgSEU2cvCzNb91dbijmBJ/8HD2IljpqbMmO/Q8PuikaI2JNx0d7OVswT23cdkk2bcde79h+XfqJgSW4Fhl3RtEQTQ5cOTSWkihojemE3ql9NiJKYz71iWT9YWlmgQlk/LPj2F/meFNBkmGMKXiYEoyahdo1KKFrYAytWbxZTkxIQsjJS8vc1DBekKYuCL0P5yF9ArSN5C9L0acJCyL89mnuE45PrEK+n5vNxeUlo8qRwnFUTJ69/EB3zn8nYOLf4vEfr5Pyj1o95VChk83DEyAiLh2GRWcllw3BHHuzI+ijpqqlwffgdn0UsqPWlhpDvlLFW0NxIE2ZWc6JYWVlI2DMZF5lmmiGTPJDQFMoU1v+GlauLk4R1Mp00tZBkXOV782BJLhVnRwfhWYmNYQp5VyQnJ0s6aPKvsC+ZJJB1MASTB8kn5ZHJ3zPi2d/+L7kY2KlU7ZOAh3G/wtkNiCnh3+Lk2bkMr2P8LNXfNEMwPjgjpzbjfTl4OEgZiicDUsMkITZy6hXhwN4WKcmpcg073IxJmIyQAcuNh9fl55KBHTEgtlw0Mnja2Wc0xbDQdEMKVr3B8A+4qAHg5CV7GzHOSKzEe8lLwHskUUtcAowwilBA/FPZP3a2IrBxHHADp6BIoib6JTAXBHPWVyzvh9/X75A+ZN0srIsLL3kQ2I9cEOITEqSdNC2RJIkLjI21tbwDxwe5G8gMx/HBBYHXsM73h/QSfwZlYsjPMyH93UmU1CAhCntsnGF8hAuB5q8uHZph5IQ5KOPvLeOYa9IrjWphy/YDeKN3e3w4bjZu34mQeqjh5OGHmyP9XYKCQ8TcRdZBFxcnONjZChUyTWP0s6EJlPOAczAs7K7cT/8o/mT6ds4PP5+i6NurAyZO+0rWOlKgF3ByFKIir8KeMh+Cgu/go+H9RLPKzx4eBXDzFhPdFYRXIXd06dQMC75ZKffQHBgXF49Sfj6Ys+BHeR/W8W/pnUnRzIR6AdeCJbvupSvptM3DBveSdk+d9S1e69QchQu6ibDw/U/rBQtqiY+dvIDTZy9nbu7EhfwNGYmsMkYe1+t33+6B6zdu4mZIuJBK0YeIVOtTJryD0R/PRVjEvX8MVO4JI4b2QVxCAvYdOIkz5wOE4I24fjisLzZs2isHFFdXZxw6chal/EvAysIcf2zeg0b1qosgt+fAcbRsVk/WkEVLfpP3VMV0CKgoBtNhm6tq5iZPKlguOlk9JeSWF6AwREdJ8uGTJVKV/I3Av/kgMFkYk5PFxibIGOcpnkJvvz4dxTmWCcPINEgnWJZJ44aIAEAzV5OGNeU0S03oqdOX0bNrK/HNoVN1wYJu2Lhln2jHunVuIXkb1m/cI4609Ndi7gSSlT2IicPNm3fQslldDBnxmZzkx4zoj+OnmCvFTa6hTw4de93dXUD+EgrVzHVAcqXWzetJjggPd1dMnr5IzHljHiaUYvs+m/WtvE/71o2F0InOxBQqKHzzHXbuPSrPqFjeXzR/jetXF40thY5ZUz8QYWHh4l/Qsmk98V/6ZfVmcfqlQE4adiZ8os8ZN3pqHCnQM1kThX9miOXfiC81mG1a1BdtDOuYOWUEPp32tRz0mNjtnQ+ngb5DdF6nhpifd+89hrJlfFG2tDcOHDotJkqyt7JQYKHgU9KniOBK/EgHT7ZVmkNvBN6S5G88KLBQsBn6VnfRdtN/TRXTIaAEBNNhq2pWCCgETIAAtwmPtGSEm1lmUi3zpP71nPEiRNI8JuYtMx3u3XuA26HhmDnlA4TeiYS3dxF0f3OUbKhv9GqPzdsPSkZEUpn//NsmMXdRO2BtY42F3/yCiWMHi7/OlQA616YnI1v5+xZJfEan4H69O+LHlX/KqXtA384Y/ck8DB3YTSLB6J/FzY7+QsycSs0dKYuZpyQ5JU1O6y2b1pVTPU/C9N8hYyIFh9lf/gAXZycMfPNVrPhtk+R8+GbpKhEMKFAwsyp9f+jETU0vfZEWLv4V5Ur7onJFCgjBaNygGib97xsM7NtZIoGYdE38u1JSRVswZGA3TJq+CFt3HELP11pjx+7D4hdEmuf2bRph2U/rRRNMcyQFhN//2CH3sTRrXEtMlT/+skGi1b77ca3ktZg1dYQICGScHDygG5wc7HAnPBKLvluFcmV9RbOz9+AJaScdrVkmjx8qyd8+fK8vNmzZi1bN6ksejG07D6NXt9YoV9pHBAdqLqmRPnPuMmpWLw8nRwfpC1VMh4ASEEyHrapZIaAQMBEC9gY9YrWkDE8vXTs3F5MWN7tRw98UvxVG7/CUW6dWJdhYWYl6euKYQfh1zTbxlxk57A0xdTFhEjcchvlyY0szGFCjSlmJyoqIjJIETTQtxMYnoErFUvji658x7oMBeHfUdLR4pQ70Bj2io+MkFbN38UKSpGzcpC9gaWkppjFG9QTdvI2qFcuIWYGbL1X3DAUf+V5fvP/RDFH/MxGaG00bDnb47oc1InSM/WAAvvl+Ffq/3hmfz18mqnX6/tA37HHaNGot+F4Rkfewet0OOfE3qFtVMki6uzrDwsIi09mY31GbQpyoEaAQQBMkzcU0JVIYOnfhaqYJ89GupM8an/XHpr2ShI0Jn6hNYeKphYtXIuDazX/0PM3P7w7qISZHCgc0YdA5meYPZotk+veGdavJex89cU4SydH0uXv/MRHI6HfA/mUGTb4Hk08pDYKJJtjDapWAYFp8Ve0KAYVADiNg6jBHquypOZg07WvJe/D3UqxIQQzo20l4R+h/ld1SvmxJ+PsWFy6SfyvUcvyxea9oQnJjYcIr8tgs+3n9fzpl5sa2qzY9GQElIDwZI3WFQkAhkIsQYJhj+9gIrLN3N0mYY4bXP23dj/PGp68C7fOMAniWQudB2ufpDPxvhTZ8JmGiFiI3Fka70Qmd2gNVXj4ElIDw8vWpeiOFgEJAIaAQUAg8MwL/EBAYF0wblKQP1Woy04/Sk5zfP67Qbsf0velpUnViy+LvtO9lpTz6rKxcr65RCCgE8i8CDHOskhSLE1YOmU6K+RcN9eYKAdMh8BcBwde7iFDtTp21WLxpGXYz6uM56NOtLapVKSPONH+3uZG0Yv7MMeIwcvT4OXwyZpCE7jA8ZcTYWeLgwljXO6GRKFbEU3KNkxyH4URk5CMBBuug5ywZE0v6FEPA9WBYWVhIPoDDx8+KA5AqCgGFgEKACJjaB0GhrBBQCKQjkCkg8OQ/clhfIURiPCtpcXt1bYP3P5qOcSMHCnHSsFEz5O+8liE7/N+mZQPx+KWt7Oslv2HmpOHYvvuwkFn06j9aQo6mffIetu0+jEKebsIUdujoWQkBIkHGytWbUb1qOYkLNtfpsH7TbrzZq6N44a5at12odv9RNBrEt28BmJnlyX7UhYbD6tBx/H9yiTz5GqrRCoEXggA1COWS43DO0l5pEF5ID6iH5hcEMgUEnvIXzh6HX9dskdAdUinzNE9Kzdi4BDnpD/tohlAwV61URkKDGELz6dghuHo9WMJQmLmRdM2fTv8aYz/oL9z6JOahVoKCwq+/bxEufpJzeLq7Cr0vY4CZAKrZK3Wg02owZ+FyfPLRIGHvYlxvUPDtf/aFToeIb2bBaJvO2JfXiuWJs3CatVAJCHmt41R7cw0C5ELIm6nacg2EqiEKgScikCkg1KtdGd4lvLD8lz/RrEkt+JYogrv3o2Xj37rrEMqX9sX0uUv/QrlMOty+Pdvjy29+kTji9q0aCQ3o7n3HUbdmRUyf+73E6jK+lfkdPpu1GAP6vorQsEjh1K5U3g8JiclCScpnU+Cws7EWX4eYuHjs3nsct0PTaVH/Xgw21kLZnBeLJk0PTXLWvX7Jq164sIeQyjK3xeM8q+nHQZPM3btRElNNbU1MbJx4SPMzqWCzwiXPOGvGQBN3sr+RuY2FybRYqF3K+MzfGQtND2tyxz+uMAskk3KRepVkNmRMowf4zZBQife2tbaWZ2WlbXmxr1Wbcx4Bmhg6xYXjd3sPk0Qx5HyLVY0KgbyJQKaAQD5+cpfTsZBOh4wFJl0pTQJkEqNZITk55S9vyU2J5Bc0O9CJkVzZGq1WNjJu8tyoWLjBMb8C75c8AjqtpB42N+NzHuZusDAXMhImEsnI3cAUwWTPyu+FRC1tWjSQsKoz56/g2Il0NrNHCzU9X8/9WOhLd+45iu+/noy5C5bLxjxp3FAMHj7lLxt7xr3M4sj8B24uzrh+4xa6v9ZSCEoGDJ2Ij0b0w+ZtB4SXnmxmFBaYtOmdDz5DappecjhMn/y+pAKPjIxC9aplRcPE/iMv/f6Dp4S0hcxvI8bMEnrU1eu2iZbJytIShQq6ooy/D4Z++JmQ3KiiEMgKAsoHISsoqWsUAs+OgApzfHYMTV4DOc1rVCsnnOkUBGbM/V42Wd8SXpJSef/Bk4iNj8fiLyfi2vWb2LBlH0YNewM//bYRzRrVEh56Cmnke6cA9kbP9mL62b77iGSJZJY4OonS56Nvj3aS6vns+augVunEqYuiNWBClvLlSgqf+9o/duLkmUuSEe6T0YMwYsxMFCjgiNHD+4u5icIDTVILvvkFb/fvKsrgjVv3ixaJWSh9vL0eao2KSCIaZpRkvaooBLKKgI1RjwTN/zMpZvU+dZ1CQCGQdQSUgJB1rF7YlQ3qVIVPCS/hSWcyl9lf/ijJVmrXrCS86qRlDSXf+bwJQjFLTZCjvZ0kO+nc7hWcOHNJkh317D9GNuSPhr+J4ycvSuKYRwUEqv1rVC0v5C00NVy7cUs47WmeaNKgOjq3byrZIqnVGTriM1Qq7y8agy07D4r5YGDfV4WaleleyW8fFR2LFk3qCEUtBRfyuv+0ciNiYmNRsZw/3uzdQUwgNFlMmLrwheGrHpy3EKCGsnBaEm6bpacJVkUhoBAwDQJKQDANrjlaK+38b/buKJszk5OQ4e3vhZqBEe/0kYxr9Pmgnwc3b/6+98AJSUJz8MgZ8fN4tJQvUxId2zWGrY21hJMyOxs37GFDeomvAClUGVHSvUsrCV+lqWn40N5Y+O1KlCvjiwuXrkm+drLLtW3ZEDcCQySPfdkyPvDzKYYly9ciOjpWfE+YKGbthp1ISk7GyGFv4pdVm+Re8tXPWbBcNBmqKASehIAyMTwJIfV3hUDOIKAEhJzBUdWiEFAIPCcEGOZYJ/EBDlg7wSgeT6ooBBQCpkBACQimQFXVqRBQCCgEFAIKgTyOgBIQ8ngHquYrBPIbAkzW1Cz+Hrbauqgwx/zW+ep9nysCmQICHciKeHngRuBtycNQ1MsDD2LiUNjTXX4Pi7grtuXCBd0lhp0hkFkpDI2ztLJAVNSzZT7LyrPy+zX0IyhWtBBCwyIQ9SAW9na2KFa0oMCSkXnOzs4G12+ECL11AScHXAu8BfJZeHq4Iij4jkQ5MMvc9aCQf4S15nd81fvnDgSUD0Lu6AfVipcfgUwBgfHwPyyagrfemyze5p998i6++3GN0CEfPHIavbu1xaFjZ9CqaT1MnPYVAq4Fy3WVKpTCxcvXxcvextoaJMY5f+mqOKhxs+EmxZwL6zfuEuKdoJt3xHnOwcEWBw6flnA3VZ4eAVcXZzjY2wrBUGj4XaG9njhmEC5euYHyZfwwYeoCWFpYoETxwhjYtzN27TsmoYykrua1zLVBoSEi8j4a1K2KU2cvSySCi7OTfEdeC+bGUARGT9836g7TIkCvA2d9Ku7rzE37IFW7QiCfI/AXAWHOtJFYsWoTXJwd0bJZXSxb8Yd4px8+dh7vvNUNSUnJ2HPgBJwc7CXvAgmVxo0aKIQ4tWpUgGsBJ6zZsENyKZAqefqcJShTygdOjg4oU6oEps9ZKiF21EisWrsdJ05fzBb83LxGvdcT1pYW+OLbVUK689br7RAaeQ9fL1mHPl2bC0fAL2t3SojeyKE9kJKahunzfkLdWuXRpF4V7Dl0Gjv3nsQHQ7vDxtoSX3yzWrQmXdo1xOETF7Bp+xEMfL0d3N2csWT5n7CxsULv15rjwuVArFq/Gz1efUWeseSnP4Uc6s0erRAcEo4fV25B986vwM+nCJb+vFEEoHcGviral7lf/4bWzWoJU+Evv+94ps23lF8JFCnsISRWp85cFoKrb+ZPwJARU/HxqLcwdeZiYbEkV0H/Pp2wet12NG1cS4iUBvV/TTgKRn/QX35vWKcqJs/4BqPefwNTZi7GhI/ewrmL17Dit03P1MZsda66SSHwBAQoINgb0hCjzZu5WFQHKwTyCgJ/ERBmTvkAJ05dSD9JcrP/Ywe8Cnti+67DYiZ4rUMz7Dt0Cl06NhNyHJ4033mrO2rXqIhtuw7Jzx9+Xo9S/t4SAjfxs69RuaI/vAp5wt+vGD6buVgECjOtDr+s3oLT5y5nCyeyO86aNFQ29gnTvoO1tRXGvN8LIXciMXnWMrz3VheULVUci75fj2uBtzHz08GShXLE+C/RvEkNdGhZFxu3Hca6TfsxfeJg2NpYST2+JQqjf+822LH3JH5duxOj3++FQp6umDl/hajh3x34Kk6cuYLFP27A4H4dUbZUCcyav0KYIUcM6YZrN0Iwb9EqDHqzAyqU9cGsL3+RPBafftQP9x/EYNyUb9Gt8ytwcXbAV0vWPtPmSw1NoYLu0Bv0OHshQFgov/niE0z8bCHeG9QL4yZ9IWyGTLh1994DyZ3Rs2trbNp2AB3aNMKefcdxPTAEb/V7VQS+WV8sw5CB3XDqzCXR7EybOAx9B43PcsrubHWkukkhkA0ElIkhG6CpWxQC2UAgU0Aghe57g3ri7PkAOeHTZLD/8CmpcuuOQ2jRtA7i4xKw//Bp9H+9k6iyDx05Iwx/fXu0x8dTFuDNXh3g6GQv39euUUFi5o+dvIAKZUuKSaKkbzHZgJioad/Bk7hyLSgbTVa3PA4B9hk1BE0b1RQzwv370Th97gr69+2Elau34EZQiPANMOvmz79ulGyb5Ff4bc1WVCjnh4rl/IRW2b9kMRQv5oU9+4+LdkGZGNR4y20IKCfF3NYjqj0vKwKZAgI3GKruMzYE5kEyGoxgmDEJczL+xr/zM+lz+X3Gfcy9wO+1Wo04MPIn/yb5HLRaGIz8Tiu/83vWozafnB1WxJXaFfoYaKARxkP2A/uJWLMfNFqNaAUe7av0Pkzvq0c/q/7J2f5RteUcAlyBsuYmnXPPVDUpBPIbAirMMb/1uHpfhUAeR4BESTUTo3FYiJJUUQgoBEyFgBIQTIWsqlchoBAwCQLKB8EksKpKFQL/QEAJCC/ZoCDvAaNG6EtSqKCbcB0wIiGj0B+EHAflSvuKIyqvYybGol6e4qdg0Bvg61MUh4+dlRDVsqV9JJ8D8zOoohDIDQgwisErLQkhKllTbugO1YaXGAElIOTRzmXkhqWFufgWMFqBfgXkPZgxZbgkc5oxdynGj3xLsjfOmPe9vKWbawF8NXccRoz5HF07NZMskMymOPK9vvj5t024F/UAc6eNxObtB1G5QimkpKVix67DqF+nKqbO+lZ8GVRRCOQGBKyMBiRp6ImgikJAIWAqBJSAYCpkTVxvIU83FHB2FOdPkk8lJCShYd1qaNuqAWJj43Hy7GVJ0RwWdlcEBAtzc8nC6OLihEVLV6N6lTKIiYmDq6uztJRMlyS0WvrTWnTp0Ez4L75a/BtaNauLEsW9MGve99AblFuYibtVVZ8FBBjF0Ck2HL/beyiq5SzgpS5RCGQXASUgZBe5F3xf3VqVUaaUt2gONm/bj6joWHw6dhDiE5KE/fLe/WjExcejoIcbRo6fLYJAjy6tULSIJzZvO4j4+AQE3bqDzu1ewZWrwcKGOfCNV3Hy9EWcOH0JUye8K6meL18NwqSxQzDw3YnCJaGKQuBFI6DCHF90D6jn5xcE/iIgaDUa1K5ZEYePnoWLqzPq1KgArVYncfU3gm6hVvUKOHn6EhISk7KEj729rVAuk8aXoXeqmA4BhqVaWVkKzXLRIh7YtJWcBsVBfguaHIJv3RGhoVmjmjh++hIa1q2KYsUKYeWqzcJTUb6cH9Zv3I1iXgVRobwfNm7bD3tbG9SrUxk7dh/B0ePnYFQWBtN1oKr5qRAwMxqRxkGvikJAIWAyBP4iIFSvUhYjh72BRUtXSUw8T6hr/tiJQf1ewx+bduOD917H6rXbsWrddqFVbtG0bibHv0GvBzQa2Ujo2EZCHtL8NqxXDd//tA4ebi6IjokVxj/+beeeI4iJjX+mF8ury4PaZ5+p29XN+RwBhjlWTI7FaUsHFeaYz8eCen3TIvD/2RwtzDF3+ijs3n8C9etWxh8b96J+nco4eeoSSpfyFlZEsiA2aVgDYyZ+IQ5y3y2YhD0HjgnVsZ2NNW6GhKF40cJiF588fRHK+Ptg2OCeYAbB4WNm4ouZoyVj4JeLViAw+Ha238xMa8Sed47A3jIt23W8yBt3Xy+A99eUgfL5e5G9oJ6dVxFQYY55tedUu/MaApkCQhl/b0wcO1i0Bx3bNMbRE+fh4GCHtRt2wdnJHqOGvYmly9eiXeuGWLRklVAnDxnQFY3qV8fn839Ay6Z1sGLVZhEG2rVqKImaalQphz7d28HW1goTp32NaRPfw43AEMz96ieE3A7PNlY6rRHLep6FrYU+23W8yBuP3XTEtB0+SmX/IjtBPTvPIkDNYbHURASbWysNQp7tRdXwvIBApoDAREvm5maSI6FKpdIo7e+NoODb2H/olKQJZnrhP7fsReWKpWFrY4n9h06LCYEe70wL3bdnO9jZ2OCPzXvFNOHvWww79x1Do3rVcPLMZdSpWVE0EPKMAydxLyo6L+Cj2qgQUAjkQgSsjXokanS5sGWqSQqBlwcBFcXw8vSlehOFQL5AgFEM7WMjsM7eXYU55oseVy/5ohBQAsKLQl49VyGgEMgWAhQQWsdF4k87CgiqKAQUAqZCQAkIpkJW1asQUAiYDAEV5mgyaFXFCoFMBJSAoAaDQkAhkKcQoJOif0o8rljYKifFPNVzqrF5DQElIOS1HlPtVQjkcwRUmGM+HwDq9Z8bAkpAeG5QqwcpBBQCOYEAUzSVSonDJQs7pUHICUBVHQqBf0FACQhqaCgEFAJ5DgELowEpKptjnus31eC8hYASEPJWf6nWKgTyPQKMYhxbCn8AACAASURBVGgTF4kNdm4qzDHfjwYFgCkRUAKCKdFVdSsEFAI5jgAFhA6xEVireBByHFtVoULgUQSUgKDGg0JAIZDnEGAkg0p6lue6TTU4jyGgBIQ81mGquQqB/I4AhQPv1ATcMLdRQkJ+Hwzq/U2KgBIQTAqvqlwhoBDIaQRUmGNOI6rqUwg8HgElIKiRoRBQCOQpBLQwonJSLE5aOSgNQp7qOdXYvIaAEhDyWo+p9ioEFAKgo6IeNDaoohBQCJgKASUgmApZVa9CQCFgEgQoHLSLi8B6Sdb0YoQEjUaDiuX9UMDZEXv2H4der9JGmaSzVaUvFAElILxQ+NXDFQIKgadFIDf4ILi5OGPFtOmwKeOJ/v2H4dKVwKd9DXW9QiDXI6AEhFzfRaqBCgGFwN8RsDYakPgCmBSpr7CDDepbVsabQzrjXGNnLB08Brduh6tOUgi8dAgoAeGl61L1QgqBlxsBbtJu+hRE6Cye64s6wQ6VtP6IQwICcQftu9XBb4kGxK/bCqNRsTI8185QD3suCCgB4bnArB6iEFAI5BQCz9vEYA9bFNd4wkPjihPGS4gyxsDMTIfqlUthl4UtrA4czalXU/UoBHIVAkpAyFXdoRqjEFAIPAkBOik2ib+PHbYFsuyk6OzkAEcHOwTdvANbGysUKVIQVwIC8biDv5OjPbwKe+Da5ZuoaCyJaqXL4oo2GPsDTsPPtygsLC0QGHwb96OikVijMqyOnASdFksUKyymBjcXJxQq5I6r12+KC6WPdxHcCAxB1IMYuLsVgJurs/gsGAzKsfFJfa3+/mIRUALCi8VfPV0hoBB4Dgi0bdkAPbu2wZDhU9Ctcwu0a90QHboPg7m5OTzdXWSDj46Jk02/Wd1aaF2yHjYs3wNzXwt0HNQYKSlp2L77EN7s3RFLflyLi5evITA4FImVy8Hy5Dmw/iH9u2Lw8Cl4u99r2LX3GBISE/Fap+Y4duIC/HyLYfKMRSjt743PPnkXXV8fhcSkpOfw5uoRCoHsI6AEhOxjp+5UCCgEXgACJEpqnHAfO20KwJjFMEdu4B3bNsHnXyzD4AHdUKxoQXTuNRw2Nlbw9S4KrUaLiLv3YHnbAj39WiG0yF18t30t3Nyd8enYwbCytMKyFevQtXMLhIVFIjo6Cl9+uxoJfr4wDwxGYScHTJ80DD+t/BP9+nTC7dAIbN91BD26tET/oRMxadwQfDLtKxT0cMXc/41E9zdHKwHhBYwd9cinQ0AJCE+Hl7paIaAQeMEIZMcHgQJC00Y1ERuXCHNzHfxLlkCXPiNA00OdqpVQXFcQkWfv48ydABRtWAgFvdywdPladGr3CnxKeCEwKATeJbxw/NRF6NP0qF6lFGYvWIGUEkWhjY6FdUwsFi+YiG+/X42WTeti4bcr0a9PR9EYjPp4Dka82wdjJn6BQp5uSkB4weNHPT7rCCgBIetYqSsVAgqBXIAA7fqe+mSE6SyzTLXcoE4VlC3jC+/iXtix+whaNK2DkWPnwMloh7raCgg2huGs4RoMMOCVRjVR1KugCAj0Rxg3ciAc7W3x+Zc/4t23uyM5JQ3LflqHurUqY8GmPTCYm8P6dhgmjh2E2QuWo3PbJihbxge/r98JF2dHvNK4JrbtPIz1G3ejeNFCSkDIBWNINSFrCCgBIWs4qasUAgqBXISAnUGPeC3dFbNe6GcgxQgU0DiigsYH9xGDa4YQxCMxs6K6tSqhcYMamPb5YmFITL9NI6GMrMPK0lxMGxXKlsThGyFILV4ElqfOyd8ywh3/7XONquUwqH9X8YVISk7JeuPVlQqBF4CAEhBeAOjqkQoBhUD2EciOiSF9i9fASWMPP00ROGjscFB/9i+CQVZaZGVpgbKliuPEmQC53GBrg8Qm9WC7YRseGxKRlUrVNQqBXIqAEhByaceoZikEFAKPR4ACQse4CKyxz3ouBmtYopauPBKNSbhoCEIs4mF8Kv1Delsc7G3h6GCLW7cj0pURFuaI6d8Ljot+AFTYohqyLxkCSkB4yTpUvY5CID8gQK1/VswLDrCFn7YobGGNAONNhBrvPjM8Wo0GhgwCBY0GUaPfgdOsr6FJTX3mulUFCoHchIASEHJTb6i2KAQUAk9EgGGOlZNicNLK8T+FhErakvDVFMFG/UEkwHScA7E9O4uJQRsT+8S2qwsUAnkJASUg5KXeUm1VCCgE8F8+CBYwR2lNcdhrbHDbGIlbxnCkQZ8jqBUu6Aq9wYCw8Pt/qS+pagWY3w6DLizd7KCKQuBlQUAJCC9LT6r3UAjkEwSoQSiXHIdzlvaZGgRzmMFT44LKWj9cMgTjmvFWtnwM/gtC/5JFEHQzHMl/iz7Q29vC4OYK8xvB+aQH1GvmFwSUgJBfelq9p0LgJUWghKYQymt8cMEYiBBjBJJhmvBBSwtzpKSk/tOsodEgtaQ3zAOuv6QIq9fKrwgoASG/9rx6b4VAHkWA7AcdY+/iqENpFNUUQgrScMZ4FSlG0zkJZnAoPDats0aDFD8fWFy5lkcRVc1WCDweASUgqJGhEFAI5CkE7GGFd1NLY7tlMs4YriEFKVmKaHiWlyzq5YG01DTcCb/3z2ooIPj7wuLy1Wd5hLpXIZDrEFACQq7rEtUghYBC4HEIuMARpbTFoYcBNwyBiEDccwOqdbNa2LXvFBKTkh/7zOQKZWB59uJza496kELgeSCgBITngbJ6hkJAIZAtBMh3wMiEitqS8NC4YI/+pJAcFUlLwi0zK5NrDjIa7eriiLv3ov/1HZLqVIfVoeOKTTFbvaxuyq0IKAEht/aMapdCIJ8jQPbDilo/aKHBDeNthBvvS2RCdqmWTQlnQvNGsNm+BzBkhb7JlC1RdSsEcg4BJSDkHJaqJoWAQiAHEKBgUFTjieKagjhrvIYw472/hCwyzLFmYjQOW5Mo6WECphx47r9V4exkj+jouP9nT3zMhfFtm8F2y25AsSmasCdU1c8bASUgPG/E1fMUAgqBxyKggxYlNUXgrfHCGWMAwo1RSEPaC0erfu3yOHDkPAz/oR1Iql0N5ldvQHf3ryRKL7zxqgEKgWdAQAkIzwCeulUhoBB4dgTMoBONgZfGHfeM0ZIzIfU/BAOGOTaLv4etti4wmFiDoNNp4etdGFeu3vrPF031LSHJIcyvBz47IKoGhUAuQUAJCLmkI1QzFAL5EQGyH9bXVsI543UEGIJhyILbYW70QTA42iPV1xuWJ87kx25U7/ySIqAEhJe0Y9VrKQRyMwKFNW7w0xRFNOJw2RD8VMmU6HXgrE/FfZ25SV+R5Eie7s4I/Vvuhcc91GhpgaRaVWG997CKZDBpr6jKnycCSkB4nmirZykE8jECGmhgDxtU15YRE8Ihw7n/NCX8G1QUEJwMaYjSmpkUTXs7GzD/wvFTV574HKOZGRKb1ofNVkYyGJ54vbpAIZAXEFACQl7oJdVGhUAeR4CCQVVtacQhQUIWo4yx2U6m9LxMDE6OdjA3M0PkvQdPRl+rRVyHFrBbvxXQ50z2yCc/VF2hEDAtAkpAMC2+qnaFQL5FgBoDO9jAW1MIhbRuOKw/hyjEPjMeDHNsnHAfu2wKmNxJ8WkaG9+uOWy27obmb9ken6YOdW0OIqA1AgbTh8HmYItzXVVKQMh1XaIapBDI+wjooENljR/ctM44ZriA+8ZYGJBzqncu+6akJKL/gbm5mWRvzGphqKPFhSvQxjy7EJTVZ6rr/h2BpJpR0EabwTzADholKGRrqCgBIVuwqZsUAgqBxyFAkiOmX3bROArB0XVjSJYiE54GTWoQaic+wEFrZ5MJCcWKeMDF2QEnz2Y9AVOKnzd0D2Kgi7j7NK+jrjURAvEtwxHXLhS2J1zwlvObKK4rhnkLfkZ8fKKJnvjyVasEhJevT9UbKQSeOwKkQ3aFExrrquKA4RxCjOEma8Pz8EGoU70sjp8JeCoNgt7VBUZrS5jdumOyd1cVP0TgUcuB5qEu6eF3evs0GFxSkFjrHhIb3oN1ijU6HW2Lj/t+iH4DpuBGYIiCMYsIKAEhi0CpyxQCCoF/IkA/A7IfFtK4IcJ4H9eNt5GMFJNCxX3AMy0ZYWaWJtMg6LRa6J8yGsHg5ACDsyPMAv+bVMmk4LwMlWsBaIww8qfWAIONHgZu+nZpMPI/vzdooNFrQKuV/NSn/y6fU7XQJGthW8gMpSt5IDEuFf7G8iji5IUlP65DYmLSy4DSc3kHJSA8F5jVQxQCLxcCpEWmGaGsxkciE04arkCP5+e972BIQ4yJwhzJnkgfhLS0p3sfg50t9J7uML+m2BT/Mtp5wtcCRkp2dBzUGWHUPfxpZoTRSg+jtQEG/uR/CwOMFkYYzQ2AmRHaOB20URbQ3TeHLsoCmhRWRieUhyqDR5xRKLDSzOWj9YKXewFs7LoB+nV2MAu2ebkm4HN6GyUgPCeg1WMUAi8LAjQl1NNWwFWEIMgQigQkmuwk/zjMSLXcOTYcq+09TBLFUNLHC3FxiQgNv/dUXWa0skJacS+YX772VPe9TBcbzYwwOKZC75wKg1OKnPylcDM3pp/2NYlaaBPNoInXQZuoA9Ienvz5tzRqBdL/a+jT+vC+rGJUQ1sW9hpbnDdcw12zKKRapUIba1q+jKy2LS9epwSEvNhrqs0KgeeMAE9mrnCEt9YL1B6cNgYgwfhiVLV0UmwSfx87JRdDzpdGdSvh4NHzSEl9ukRRRgtzJFcqD6tjp/I2myIP5jz1c0/nCd/SAKMlT/cGOdXL6d/s75oAA4zch6ksSNBBG0cBwAzaeF36pv+IGcBMp0O71g0RERmFg0dOo0vHZnjwIAZ2djbYsGkvUtPScTcz0/1Fi+Ps5IBXOzTFn5v3Iio6Fm1bNkBMTBzMDDrcPBAKd70zgoyh8j8jYsa/ZHGU9CmKTdv2w8rKEq2b14fRaMS+AyfQqH51RN6Nwskzl1C7RgXxNzl/6TrCI9IFQ2qRGjeoDjdXZ1y7fkvaU6xoQYTcDsfhY2fh7uaCJg1r4Pf1O5CUlJzzAzEX1KgEhFzQCaoJCoHcjIA5zFBXWxGWGgvs0Z8UHwPjc9UZ/BMdCgmmStT0940pq31j1OmQ2KwBrLfthSaPkCVRpW+w5/9U0LnPaJsGg7UB4PfWetnctfcs09X7dy3TN35aXniyzzzlP17d/2+4caMf80F/IaEaNWEORg57A3MWLMeYEf0wY95S0d6wfDHjI0yYuhAPotPDRmtULYe+Pdvj6InzWLNhJ9q3aoij68/ho5p9Mf/8rwhMvI26dSvDwsIMIXcicOLURbRsVheuLs74ccUfKFfGFxkCw81boWhYtxpWrduOg0dPY9K4Idi17zh27jmChIR0wZdhrt9/PRkrftuEVxrVhKe7Cz6b9R3GfNgfg4ZNhk6nw9QJ72DMxC8QHROX1WGSp65TAkKe6i7VWIXA80OAttxyWh8w22Kg8Q4ijFE5ymWQ3TehcFAtKQbHrRxzXIPAUyNPmNkqGg1ie3SC3a/roXl4Cs5WPc9wk9Fan+7UZ6uH0SZNNAC0+9OxT8OfVAxkqO25wVO9n5Lu1Mf/4Gd+l6aFJvWhuv8Z2vO4W5s1qY1qlcugeNFCmDHvewwd0A2bth9Ap7ZNMPvLH3Htxk3Uq10Z40YOwNffrcLmbfvBTNuTxw9F8K07qFy2FBZOWInu9VsgyhiDePckLPp5FaytLNG8SR0REIJvheLQ0bNo0bQOCjg74qeVf0pTKJy83e81qScs/C483F1gZWmJwODb0Go1KOpVED+s+EPGgK2NFSaNfwcBV4NQqKA7ShQrjBFjZ2L+jNEY+uE0GAwGTP3kXYxVAkIOjxBVnUJAIZBrEaDGwE9bFGU13thtOCnRCbmpmDLMsXyZErh4JRh6ffaMF3Fd2sFm6y5on+VE+WgIn2zu6U5+3OjTHfkM4szHE76RwoBN+k8KB5pEHXQPLKCNMoM22hzaJF26V3/qI/b9F9iZ1tZWmDd9FBYtWYViRTzh6GiPIoU9MX/RCgwb3Asrf9+MS1fSnTwXfD4O4yd/gagHsXLyf39QLyye9zv6lm+L/ZdOQ1fBDCvWbsp8G2p+3F0LQKvVIiExCVEPYkSDkCEg1K5REdWrlJXTfrXKpXHxSqAICfy7rY01jhw/Bx/vIlj7x065n6aF2dM+xPTZSzDwjVelrct+Xo/e3drivZH/Ew2DEhBe4GBSj1YIKASeHwL0Myir9YYHCuCa8RZCjBHQ5/gZ/dnfh/unV1oSQsysctzQUbGcD86cv57tRibVqgKzO+Ewu3n7yXVww390k3+48YsXP+3+Fob0k31SujOfJomne226Ux9P9zzly2n//z/nOCBPfounusLCwhxVK5UR9b+5hRlK+3uLqSE5JQUGvQFnL1yVk3nGaT86JhYGgxGVC5VCLbty2H/1FJLcUpBqpRch7tbtsP98fqvm9TIFBD6ncsVS4ltw7cYt+Hp7IU1vwPkL11DKvzgsLCxw5Wog2rVsiJW/b5H66b/g6uqMO3ciJOy1SGEP3AmNFA2Fo4OdEhCeqvfVxQoBhUCeQ4Aag6JaD/hovHDLEI4A481cKRg8CqydQY84rS7HsaZaOf6hDfqpK9cakVrMA3p3Z5hfPSeOfOLURzV/xmee/CkIWKaH8PHEL458dOhLzFD169IFg9SH4XxP3ZCX54YCGkdh5rSDNU4bryDaGP9UL1e+bEnxXeDJPythqxQenJ0dEBUVLeaY/yolihdG25YNsXjZ7y8tt4LyQXiq4aYuVgi8PAhQY1BI44pKWj9cMAQi1BiJZGQ998CLQoJhjh1jI7DG3t1kjoqPfTdzxuobRJUvKn6q9W35My3d5q81QptoCX2h+rA8cRiaBG26fT/jhE81/yPe/CqR0L+PIBtYSVrwNOhx0RCIB8h+9s8XNU5fhucqAeFl6EX1DgqBp0BAC60IBj6awohHoggHicg7YVoUEFrFRWKjndszCQhCxGNuTFflWwLlfL1xJjQABp0eIFGP2cOQvofEPhLDn+HQJz8fnvSp+s848QNIqlMdVoeO5+1Qx6cYTzl5qZ3GBr7wEi4DmrmYz+NFR8zk5PvltbqUgJDXeky1VyHwDAjYaaxRX1NZ0i4fN1yUE9pLWRjDTwHAwgiDhT7dpu+YijQh8EmF3ikFWm7yMeZCpOOkd4S/bQmcunA13eafoEuP3c9GYVZHq8MnlIDwFNhRm1VGWwIVtL7YlnYUd/HgKe5Wl5oKASUgmApZVa9CIBch4KpxhL+mGFKQJhkW7xtjclHrstAUbvhCwctTvwFe2gTctDOHgRt/hk2fNmNy82cw8WUQ9NCLPyOcL0krnv08/T/qf2nNJEs6LWIfxuBnoUX/eklSzSqwOnYaeMpcDs/yzLx6L/1ffDVecNcUwB1jpITTvrRCax7sJCUg5MFOU01WCGQVATp3+WuLw13jhP36M4hFQlZvNe11D3n5M0P4HqrxjToKAOmnf4NDKgwOaek/GcJHNX6iDmaJWjS+F429cAfiH1L28sSfwc1v2pY/sfbk6hVhcfoiNKm535/jiS9jogvIreGpcUE1bWlcMQbjsiEotwdgmAiJ3F2tEhByd/+o1ikEsoWAJSxQVesPHXQPbbn3n68tl/H75kY57Qs/P+P37dOgZzY+MvbxbylaaJM1QLIO2hSG7jGE76FTH0/9D7/LdPR7KACQBdgvJR4BFrY5tql4Fy+EG0E5k6Y5uUoFWFwKgEZlDfzH2GVacGb+LKMpgZvGMAQaQ02e/TNbE0jd9H/tnQmYXFWVx//v1d5V1fuedLrT2TcSsrEmgmAUFAQVGUXGcRlEZBDGcZlRccZdZ8RRx30URWAEURZHWUaQfc2+d5ZO0tl6X6qqa6/35ju3ukInBEiHV5V+Xf/3ffkSqFf3nvM759576i7nKgIMEOgIJDCBCEj2wylaPZq1erSZHdhnHrZGOxnwR3LwH/lbju45s8f1ZI1fBQEy5S+peuWmndxUv2zuk6n9iEvdzKeFndkEPm/g8ZgGEppkD3rjT31dJeprK7F+kzWXLCVPmwfXnn3QwhMz/e7JEM/d/ilXg0vQ+qKxBfE8Xwt+MnLyO0cTYIBAjyCBCUBANnlJ9sOF2nQ8ZWxQ2Q/HlORoJFOfGvw1E5nyNIyqJDKVSWQqkuriHjXIy/q9/JEjfHIpT9SZzc+fS8srX5fA4FWu47UCdfaYYxfuteg2x8mNNejtH0I8nrRCPKRmTYM+MARHd68l5dm9ED+8WKGfjh4MqiOLccQtm/mxO5vxLj8DhPFuIcpHAschIDfTeT1uxCIJTDZqMFmrQ585hK3mHhiakU3PK4O9rO3LL/yRFL25VL3qtj41hzhS+OgN+1o2gY9K3hPJBgEqe58a9EddzHOKLGN1gGC1GulJDTBLvHDtzKYMLtZHkhxlZwx0lXyr1+TJBLv5AgMEu1mM8pIAgB/8xz/j4tPc+Ol1G/GXrg1YXboVqYoEMhUpmKUj1xSrXf3ZVLz6kOTnd2Vv5RtynfQRvokGX/L3u11ORGPW5YEwykqRmtYCz9qNEw3XCenjhBOL9VloQDUeMZ63VY6NE1KwiF5igFBExqaqE4fAw7+7BbMPfwLdXRuxIW1gzd5yPLG1Gm37g0jHnaOO+2WDhIn0iDYzklHsdJe84anqaVMbMTwcR2e3dRdSmW6XSpbke+K5osqF4IUHi/QZkERce81D6DIHkJmoeTYmUoN6DV0YIBSJoanmxCJw1vLTsGzRdOx64bc4Z9JenNE8hJpAAgcGvHi4rQbP7SvH3j4fBuMupE4y4c94JWblbY7LTp+FDVt2I5kcmXWxQGnT4UBs1fnwPfwYtCLIheCFG5O1WkzTmrDV3I0DZk9hT8xYYDMWcXwCDBDoGSRgcwIO3YTPZaDan8SypkGsmt2LM5uHkEjr2Hg4iIe2VeOxXVXojbhtrmlWfB0mlsRDWO0te8MzCHI1cO72QMvg6DqGL3sbSh54BFrausDDMvksLGiBNg3NWgPWmTvUxtgUJra+FqKzRVEMEGxhJgppdwIOh65uh3utwUjekUeumR39yCBmjlwtJ2vmcv2tlKP+nTHUNbSjnxKPjuqSBJY19eGcaWHMr48g4Epge48fz+8tx/qDpWjr8SMcd8J4nRvrxit3CRKMIzssT05Kua43Mhx9Be+TK+3ob0WufCf89z8ELW7d3gYr5LKiDFlCaNEa0KBVI2RG0IYOJE0mhbKC7XgrgwHCeLMI5ZlwBOQe+u98/VPqrnu5GvZ4j65p+OrN/4DtO/bgtv/545FX5PrZL3z6Gtz1h4dQX1eN6z56pRrUfnrrPbjh2vehbedefPOWW5Ee+aVaW1OBz930YegOB777X7/BFz9zDXweDd/86pfxlqnteM/SMCYHejEUc+GPW2rxh4112HQoiETGmpwChTCeVbc5XrByMf769HrrZxAARC9cCc/6zXD0Wre3oRBsX6+OKq0MF+rLscVoxzZzL/cYvB4wm3/OAMHmBqT4459A85RG3PzZa9DdM4AvfOW/kMlksGDuDLS2TIJhGnjq2XUIhSP45r/diF/d8QC2bt+tlNI0YNWbz8Fl7zgfP//VPfjYh9+LPz/yFHp6B3D+ymX4xW33qmDguz+8Hfv2Z7MAtrZMxrTWJlx5+Sp09vRh/cY2VFWW4+ChLvzvQ0/i2qvfimpfCDtf+gPOah7E/IYw3E4T2zoDeH5fGV7sKEdbtx/pcbyx0ao9CDNaJ2Fn+8G8OFByzgxoyRRcu/fmpfxCFiqbQuu0aszSmjCICNrNgwib4yRldyFBFGFdDBCK0OhUubAELn37eZg6ZRKmTZ2Mn936e2zetgvTW5vQWF8DwzTVIB6NxY4ECNvaduO0+TPhdrvx0prN+KdPfhBPPr0Gn7rhg7jtzgdw43UfwJbtu/HFr/wQn/+nj+K/b7sXu9o7lFI+nxelQT/ef8VFWLZkvno/GAioYOPuex/BR/72crVEcevt96n/F/SkcVpjGO86rRNLm0Io96ZwaMiDP2yqx3N7y7FvwIdIwgFjnNxzkLNcwMwgor2xbIz59AKjNIjU9Km2PuooybdK4MXp+kz199PGBkQRzyc2lj3OCDBAGGcGoTgTi4Db7cK3v3wTvv/TO1VA8LEPXYEPf+JmSKKjEp9XKdvfP4SMkTlqBqGyogyy96C3b0AFCA//5VlceN4ZGBgM4V2XXog/Pvg4dN2BubNb8YOf3InDXb0YHo5h6eJ5WLpoHlqnTsKOXfvQMqURUtb3fnyHWo4YHSCMJi3BQrkvhabyOBZPCuHCmb2YXhNFLKVj8+EAHtpeg7UHynA45DnlBpJftDWZJHoc7pPepChJpuIJazInHheIpiG+/HR4X1h7ynmdjAByLfgibZbadLjL3K9u/zRPmvbJSMDvjAcCDBDGgxUow4QlIBsJG+prcOBgF2QTogzYe/YdUssMox9d11Qgcc/9f8HzLx2dYKemqgLhyLDa5Di1ZZIKEvoHhjBtapMKLqqqyhCLJ7F3X3a6XP5/MpXC/gOd6n2ZMdjXcQiyn+HG667C4FBEzSC81uPUTTSUJnB2ywDOm96POXURuBwmtnf78djOKmw4FETHgA8hyblQ4OeNLjGITd77zjfht/f+VbHJ1yOXNtktWVIp/GjRG1CDCmw2d6PLnFh7KPJl64laLgOEiWpZ6mU7ArOmtyAWj6PjQOeYZD+RExJSoGyEnDtnOvr7B3Gos+eE65BjlKXeNFoqYnjzzD6smtWLSaVxdEfceGZPBe7dVI8dPSWIJAoTLMgmxQuG+/AXf9VJnWSorAiisa4Km7fnd39AcsEcuDdtO2HOp/JFF5yYr09DnVaBNUabSttt4OjTMadSPtZ9aggwQDg13FkrCdiWgN+dQWtVFGe1DOKM5kHMrIkintLVrILsW5BjlAeHvIinx+fJCJfLqY6NptNHz+JYbZDk/Nlwb95uubiw+AAAHM5JREFUdbGWlifXgk/VGlGrVaATfdhtHBjbJV+WSsPCxhsBbXbrSnNQdyJopOGFgSHNiYymodxIqySZg7oLATMNn2kgpDmR0jRUGGm1GtWvu1BiZuA3MxjWnIhrOiqM7HnYPt0Fr2kgaKYRg46I7kSlkYRsK+rXXNBgosJMIw0NA7oLpUYKHpiq/rSmocpIqTr6dDd8uTrgQFR3oNJIQX5FSB1O00SZqsOBiO5AuZGCEyYGVR1AmZlCEjpCuhOlRhpupaNLlV1uppGChqFjPpMN3KKHnLMWHf1GBiXIIKw5kNAcqDaS6jOlo5FBEBnER+ko3WJWR6DClFW8nI5peEYYpzUdVaPKeZmjA1HNofSXZ0B3wm2aiuOwlv1MdBSOg5pkPc9+loADYd2BMiMNFwzFVO7rKR/RX3Qc/ZkAqDRTyIzoGDDS8MFAWHMioWmoVvpn+efsmBjhKHLndBQlxR5p6EpWYZzTMaXpipXoL37kMzLwQzaXZX1Fvid2kM/k+l7xM9l4Fh/RUerI6i9+lEEUDgyPsrHI5jINZX+RSHQUu4lv9OtuaKapdMzZKufjWR2zskn9va+jo6n8Mal8RWQdrWPOV3P1v+wrTiRH2opwlO+JjeVPrh1JGxMfER874uMjNhY2ctZfZBP9R+soviHtR3SUdYcqM8tR3s21I9FRGNeM0lEYl5pp5ath3al0OtaOOT1ebitOiP7ic7l2JO09p4f4T5M7jvmTwrhoSQ9WtgzA702jrTeAezbU4fFtVQiHHOg2PSgZaUc5P87V36O7lf1FtqRqjy5lG8VG2qqmqb5D/lveLc+kcV60Dw/7qxHTs+0x99kr+5wsR2Esd1dJfyBtWNqy8HfCGOkrsv2I+LiwyfmK9CPZviLbjsWORz7Tnar9iD1ybSVnf/HjwSWL0Lh2PXQjc8SOo3XM9WOjdZQ2L3bM1SG+8rKvZvsj0VHaSo6jlCP6S1s50h9qDvV5Wa6vGPlM6pe+Mqq70IxqnIeZeErbhQ7jsGIjtGQ8yPn4gCa9CZSPyd/ic6Kjb6Qdx0b6MfGj0f3x6PYofZSUI+NKrs8TPYJGBl5k20NypD/ItZWX+4psf5AbV6Rf85gZ1R+IfrFRfYWUKX6UHXNeHg/EgiKb2F/smNNR+kMZD46n4xFfPXbM0WSuJesruXYksuV0lL288t/H+srR42p2zMlxFP2lHxF/FP1FR+kPchtxxV+PO65qDtVfjh4PZfktN66Jr4r9ZaeOqh/aSH+YtWOJkUYJDAyP6Ch+LG1FWLlMU7VH7YIpy82t7gCmpaKoziSx3eVHXHdgQSKsBqOtngBaUjHUZRLY6SpRA718Jgqt95RiUjqOpnQcHU4fuh1uLEqE1MAmWc7q0klMTUdVo253l2BxfAhirPXuoAI6PxlRdWz0BDE7GVGAdrj8aqBfnAgpWKu95WhMxzE5HcdBhxf7XV4sjoeUYdd5ShEwMpiRGkaXw4M9Lh/mJ8LwmwY2uwNqoJibjKhGtcPtx8zksAIt+sqgMS8ZUYPqNndAlVGVSal/S4M8LRFWwZDU0ZyKoSGTwB6nD30ON5YmhhTsl5SOCUxNxxTUXW4/lsSHlG7rPUHlkAuSYeXEG5SOw6qjFR2lE1qSGFKOtMZbpnQUjgecXvVHMsXJICBsxJHFPgedXux3ehV/6SQ2ewLwGQZmpoYV+z2uEsVRGt4mT1ANnqK/OON2dwBzkhHV8Dd6ShVbsZU05LXeUrSmoqjNJLM6Ot1YGn9ZR/n/8rl0QDvcgSM6bvCUqs5TysnZcdYIY9FxyOHEsviQauCiv/iK2HGf04cupxunx0MwNA2b3UHle83pmPqs2+nG/EREyS/6i82mpmI47PCgw+XDvGRYNa41njJIYDM7Naw67ja3X9lNGtdaT5nid3oipBiLP85IDqvOvN3pQ6/Tg+XxQcXhRW+52vQmjKVxSjmif9aOpSpQXpIIKZttcQcwKxlRQXKby68CFvFV+Uz8SvQTPdtdJaqjzfqRrmzVkE6oz3epz1zKN6RDz9lfPhPbi52FqQQGL3jLUZlJKRuLHcU/han4tugvj/iR2EHezfFvd0l79ODM+OCRz4Tx9FT0SHvIlSM6yveFlci13e1XviJ+J/UJP5E1x0b6g/pMQvmxBCHSjuRv8bn53jDm1kQwuSWB5VMHMa00CjMCPNJdjQM7vOjc58GaRBn2694jeuR0lDYonaX0OcvjQ6qzkvYnbU3anDxKx8Qw3hPpxH+XTUan04Mz4oNqgJTPatJJtKajqj2IDaQdCSvxP+G5IB2Fb/YMPNrepdqG9B9iN3lHdO51uJV9hJPwyvYVUDrKjyCx4+jPRG+xv8goPiZ9hbCR/rB9xTlY8fSTcKSSqq+QwGa0jrl+bKM7qHxE7Cj9krw7fcRXd7tK1GZM4SED7DpPUPWr0lYOOj3Y7/Sp+kX/Te6AahezUsOqreyXtjLSV4ht5LOZqSj8zhYY7laY6U4kU7uxzu2Gc6SvkMByiyeg+koZeKQfFdnEN3I65sYDqVtkyLWVNZ5S1feIr4rvS5+zSNWfwSZ3EAldV32HBAPic7kxZ6fLjwGHU9lKPhvdVqQ/EP2lHcngK+VIsNiaiqm2InrKOCJ9hfiKyCzlyniw98h4IP1BqeozxeY5HXM+Lm1a6h2tY86OBxxeHHBl+2MJlaQc8RnRUfr8nSN9jgTM0o/JuLgwEcLwSF+Rs6P0FfLjVvSQoFb8asqIr4i/Sf8hY5fYWPpV6SumjPSHov/CZFj94MmOq9kxJ6fj6Ykh9SNS9JcASXSUH2HCcV4iogImadMyDuV0lD6naWRcGz3m5HSUAHVGKgouMYy3OR3KQwIThICuAZPL4lgxrR+Xze9Ca1VM5VfYcKgUD2yuwabDQfQMuxFLyvB84o8MhtKBHnbKnOPYntJgCRrqqtC2a//YvngSb8dXngXPS+ugxU790UDJflihBbFcm48+DKh9BrxI6SSMWmRfYYBQZAanuiRQaAIyoMtGx5pAEjNrhnF2yyDOn9GnjlUeCnmxpqMUf9pWix3dfkSSJ5bbQH6xyazVWB85dipHOhOJ/KcGTiyarzIpOg9kk1idqqdSK8UybS660I9dxn4MI84ji6fKGDarlwGCzQxGcUlgIhDwOA0saAhj5bR+FTA0V8TUbMKL+8rx7N5ydZyyJ+JGLPXKIOCNHnMsFL/05EZk6qrhWXP0sdVC1C9JjipRiql6I/zwYa2xHWEw+2Eh2E+kOhggTCRrUhcSsBkB+TXv0EwEvWksmTyEy+Z344KZvZB7q7Z0BvCnrbW4d1MdBqJysZTMRQASILw70oV7gnVjOuYY8Psg+SZC4cIMlIbPi/j556Lkz38pqFUccGCFvhAezY1nMxsRQYwzBgW1wMSpjAHCxLElNSEB2xOQYKGiJIVFjWEsnTKIJU0hNJXFsXfAp45Prt5fhvUHgwjFXEiO8b6IKZNqEYpEVaKoQj2Ryy9G4L4H1WmTfD9+eDFDn6JmDDrMThwwuxkY5Bv6BC+fAcIENzDVIwG7E2gIJnHx3G68c0EXZtdGkDZ0PNpWhfs212HNgVJEkw6kjOx12q/1TJlci0OdfXnPfzBahuF3rIL/wUflDu+8mUEOOzdr9Vikz8QzxgZ0mn15q4sFFxcBBgjFZW9qSwK2JCBLER6HgbpgAnNqI7hq0iHUzUygzJtBe78Pa/eX4tGd1dh0OIB0Rg5Ijo8n+tbz4XvsaWgp6zdFOqBjvjYdFVoA7eYhdJq9kKwjfEjAKgIMEKwiyXJIgAQKQkCS8sxNhrG7xI8FjWGsmtWDM5sH0ViWQO+wG//XVo3nO8qwq8ePvqgLacOB+toq9PYPIZm0fqB+LaVj550N74vroEVjlrGRVD11WiVma83oNgewxWxn9kPL6LKg0QQYINAfSIAEbE1A10x4nQbKfGksbRrCxXN6VApoOVopGx3XuG7Em1Zdhi994ydYt6GwqY8TC+fCebgbju5eSxg3ajVYqs/BNnMPOowuJJDHGyktkZiF2JkAAwQ7W4+yk0AREpC0SpdGunF/oPa4pxjk1slqfxKLJ4dwVmsUH/jqC/D4q9SV2d/87i/VrZeJZErdx5DvJ900CabbBdfuk78YSo4sTtZq1R9JFLzV2IsoTn3ypXyzY/mnngADhFNvA0pAAiQwBgJjzYPwnsvfgkvfdh6+84Nfo6wsiBVnL0bH/sN49oX12L3nwBhqHvurZjCAVGsz3Bu2jP3LAErgxfmOJQibUTxrbET2hhw+JFAYAgwQCsOZtZAACVhIYKyZFJ1Ox5HTCy6nE+UVpWioq1Z7E/z+EoTCEbTt3IuDh7otnVkwvR4k58yEZ92mMWlfhgAW6NMQN5PYYx5CP0I8sjgmgnzZCgIMEKygyDJIgAQKRkDSJcllOvtcPktOK7hcLjTUV2P5kvkoLwti+8496OjoRG//AGKxxBsKGEyXC3Lt84kECKKXD17M0prRoFXheXMT+s1wwbiyIhI4lgADBPoECZDAuCEwbWoT6morYZgmtmzdjUwmg8bGWuza3XFExmOXGCY11qKuthrrNmxTmRLnzp6mvretbQ/mzm6F1+vBhk1tr8h/IO8umDcTutygt3kH5syaioryUuzZdxDVVeW49OLzMTwcwzPPr8OW7bsRiZxEBkZdR2LRPHjWvvYMghxZXKLPRhB+bDZ3o8eUm0blHkk+JHDqCDBAOHXsWTMJkMAxBL715RvxzAvr0d3Vh8Wnz4WRMXDZJW/GVR/5HPr6h+Av8aGhtgpLEyH8NeVAV+8APv7RKxAKDePO3z2I2TNbcN6KZWisr8H/Pvwk3nrBOYjF4nj08RewdsO2o2pbsmgu3nbhOSgrC6hgYnprE1av24INm3agfe8BXHLRmzBv9jQ89OgzmDW9BfF4Aoe6etHT04+u7j7E4onXt5+mIbF0YfY+BpkiyBw96HvhRrPWgKlaI3aYHWo5wbRkXuT1ReMbJPB6BBggvB4hfk4CJFAwAt/68k1YvXYzevsHsXjhHJx+2mzsbt+PNRu24YE/P47S0gCaJ9dD0zT0D4Rw4FAXrv3IFdi5u0MFAU6HA2efuUgN7m079mJgKITVa7dg1swWPPLoc0fp4XI54XG78bWbr8fQUAS1dVXo7unH9398B3r7BnHW8tOweNEc/PBnd6nveT1ulFeUobV5EhYumIne3gF1bLJ930EYxit/7Wdqq5FuakT8zKUwPS4YgQDKfn47HIe7oENDs9aI+Xor1hs7cNjs5QbEgnkZKzpRAgwQTpQU3yMBEsg7AZlBeO7Fjdi5ex9OmzcTpy+cje079mDhgln41L/8B2qqK3HmkvmYnRzGw90hrN2w/agAobmpHiUlJZg1o1ktNXT39KFt5z64nA489uRLSv6qyjKce1b2JMOb37Qcm7buhNvlUssLiUQSJSVe/OqOB14RIIxW3qHrqKurQktTI2prq5BKpdDTO6AClu7ufqQzGcQuWIHQh/4Gsg9B7pj2PfEcKn9yO6YatWjQajBohtBmdiCJwiZvyrsRWcGEIcAAYcKYkoqQgP0JfPLjV+HPjzylZg1uuv5q/OK2+zAUCuPGj1+FX95+v/q35EF4T6gTvyutV3kQRs8g1NZU4h+v/1vEEwl870d34B+vvxpVVeW45Qe/wbsvvQD/+eM7VBAgz0WrzsUH33cJdrXvx5PPrsHKc5bA5/Hg29+7FV3d/a8ZIBxLWgKG5imNasahaXI9Xly9CW279uHgBSsxdPnFcESimPqvP8GKQzU4jB5sMHYhwyOL9nfYCa4BA4QJbmCqRwITjYAs5ZdnUhh0uNRq/fuvuAhVleX44c9/C8M4fvIjmSE4Y+l8PPPChuMuBxyP0QeufDt0Xcdt//PHMSGUpQgJEmqqK1DTUIvMNVcj0Z6A4xu/xnMH12MIhbtNckyC82USOIYAAwS6BAmQgK0ISIBQlUmi1+Ee93LLcsWdt9+CEo8f193wxaNOY4x74Slg0RNggFD0LkAAJGAvAnLM8YpwJ+4eWWIYz9JLMFNdVQFJ1NTV03/CsxfjWSfKVjwEGCAUj62pKQlMCAJymfM50UE8U1LBTAETwqJUYrwSYIAwXi1DuUiABF6VgPwyz8dVS/JL3+l0quyJcjLh1fY0yBFJuespnU4rGWWvgqYBmYyhjlrKKQbZuCjvJVPp484cOBx6ti7DQDpjqHdTyZRKEiXlSUroZKowl0rR1UjgeAQYINAvSIAEbEVAZhDOjQ7g6ZJKy2cQ/uFj71MJmSQ7Y8eBw7jr9w/D7XbBX+JVjCT1cjyRxBc/cw2eenYtHn96NRobavCZGz+ETVt2qvscPnz1ZfjU57+Dj1x9uUq4JBsof3HbH14RbFx/zfswHI1h56596kSF1NfaMhlf+vqPUVEWxPf//XO48XPfVvdD8CGBU0GAAcKpoM46SYAETprAscccT7qg43zxpk9cDa/XjcmNdXji6dW4+95HMHfWNFy06hz19pPPrMFLa7fg85/+e9xx15+wt+MQmpsacclFK9Wv/dXrtqpMjr+6/X5c/7G/wXe+fxtu/uzH8KWv/0gFFjLL4HLK6QsTt3zj04hGY2rGQTJAXnvT1/Cz792Mv7/h31Sipp//4Ev453/9Hg4c7LJSRZZFAidMgAHCCaPiiyRAAuOBgNr4l0miJw+nGG649v144pk1CAZKcPklF+CzN39X3fi4cMFslSp5W1s72vccOCpAECZXXfl2lWnxl7+5Dzde9wH8+s4HVB6Hb//nrfjMJ/8OX/nWT9VSg8xGrDx7sUqcJPc9PPLYc/jO1z6FKZPrce2NX8P3//2z+Ltrv4ihUIQBwnhwtiKXgQFCkTsA1ScBuxGQAKEik0K/w2W56O+/4mL1Kz8Y8KvlARnAj/eMnkGQzy96y7lq8Jd00O97z0XqHoiLV62A06GjfzCkUjhL8qeBwZAqTlJFX33lO+DxutUeBAkeykoDaslBsjhKWZxBsNy8LHCMBBggjBEYXycBEji1BGSJ4d3hLtwTrFOZFK18ZGOgbFSUDZDJZPJVNyl+5QufUMsJ9//pr6p6h8OhAot0OqM2HsptkrLR0O1yIpFMYdniedi+Y6/KBJl75DZJuQtCggPZFClBQa7OluZG/OiWz+OaG77MJQYrDcyyxkSAAcKYcPFlEiCBU01ANim+KTqAJ/KwSfFEdSsN+tUyQSiUn6yIHrcLwWAA/QNDzJ1wokbhe5YTYIBgOVIWSAIkQAIkQAL2J8AAwf42pAYkUFQEZAbhzNggnvNV5CUXQlHBpLIk8BoEGCDQPUiABGxFQFItvzfcibtskGrZVmApLAkcQ4ABAl2CBEjAVgRkW2JDOoHDTg9nEGxlOQprNwIMEOxmMcpLAkVOQAKEoJFGSHcWOQmqTwL5JcAAIb98WToJkIDFBPJ5zNFiUVkcCdiaAAMEW5uPwpNA8RGQAOFtkV48GKi2PA9C8dGkxiTw6gQYINA7SIAESIAESIAEXkGAAQKdggRIwFYEdAAL4yGs95Zyk6KtLEdh7UaAAYLdLEZ5SaDICfCYY5E7ANUvGAEGCAVDzYpIgASsICCnGKYlo9jtLuEMghVAWQYJvAoBBgh0DRIgAdsR8JoG4posNvAhARLIFwEGCPkiy3JJgATyQkCWGK4Id+JuZlLMC18WSgI5AgwQ6AskQAK2IiDHHC8Ld+HePFz3bCsQFJYE8kyAAUKeAbN4EiABEiABErAjAQYIdrQaZSaBIiYgmxRnJYfR5vZzk2IR+wFVzz8BBgj5Z8waSIAELCTAY44WwmRRJPAaBBgg0D1IgARsRUCHiWXxEF7ylsGwleQUlgTsRYABgr3sRWlJgAQAyDKDSRIkQAJ5JcAAIa94WTgJkIDVBGSJ4Z2RbtwXrOVlTVbDZXkkMIoAAwS6AwmQgK0IcA+CrcxFYW1MgAGCjY1H0UmgWAkEjTQiupPLDMXqANS7IAQYIBQEMyshARKwioDsP6jJJNHjcDNAsAoqyyGB4xBggEC3IAESsBUBLjHYylwU1sYEGCDY2HgUnQSKkYCkWn7LcB8e8Vdxk2IxOgB1LhgBBggFQ82KSIAESIAESMA+BBgg2MdWlJQESACAJEo6PzqAv5ZUcAaBHkECeSTAACGPcFk0CZCA9QS4B8F6piyRBI5HgAEC/YIESMBWBOQUQ306gU6nh6cYbGU5Cms3AgwQ7GYxyksCJACfaSCm6SRBAiSQRwIMEPIIl0WTAAlYT4BLDNYzZYkkwCUG+gAJkIDtCUiAcEW4E3eX1nOTou2tSQXGMwHOIIxn61A2EiCB4xKQXAgZdacjHxIggXwRYICQL7IslwRIIC8EZOfB/EQYmzxBblLMC2EWSgJZAgwQ6AkkQAK2IsA9CLYyF4W1MQEGCDY2HkUngWIkIDMIs5MRbHMHOINQjA5AnQtGgAFCwVCzIhIgARIgARKwDwEGCPaxFSUlARIAIBsUL4104/5ALU8x0CNIII8EGCDkES6LJgESsJ6ABAjvCnfh98E6BgjW42WJJHCEAAMEOgMJkIDtCPjMDGKaw3ZyU2ASsBMBBgh2shZlJQESUNkPWlNRtLtKuEmR/kACeSTAACGPcFk0CZCA9QR4zNF6piyRBI5HgAEC/YIESMBWBOSY48JECOs9pZxBsJXlKKzdCDBAsJvFKC8JkAAJkAAJFIAAA4QCQGYVJEAC1hGQUwxvHe7FQ/4aGNYVy5JIgASOIcAAgS5BAiRgKwI85mgrc1FYGxNggGBj41F0EihGAnKKodRIY0h3FqP61JkECkaAAULBULMiEiABKwhIgFCXTqDL6eEmRSuAsgwSeBUCDBDoGiRAArYiIEsMV4Q6cXdpPTMp2spyFNZuBBgg2M1ilJcEipyADhNnxIbwgq+cmxSL3Beofn4JMEDIL1+WTgIkkAcCssxg5qFcFkkCJPAyAQYI9AYSIAFbEZAZhPOi/Xi8pIozCLayHIW1GwEGCHazGOUlgSInIHsQ3h3uwj28zbHIPYHq55sAA4R8E2b5JEAClhKQ5YUyI41BHnO0lCsLI4FjCTBAoE+QAAnYioAECDWZJHocbu5DsJXlKKzdCDBAsJvFKC8JFDkBHnMscgeg+gUjwAChYKhZEQmQgBUEZJPiubEBPOWr5AyCFUBZBgm8CgEGCHQNEiAB2xHgMUfbmYwC25AAAwQbGo0ik0AxE5AZhBXRATxVUsFMisXsCNQ97wQYIOQdMSsgARKwkoDDNPHecCfuYqplK7GyLBJ4BQEGCHQKEiABWxGQ5YXaTBJdDret5KawJGA3AgwQ7GYxyksCRU6A1z0XuQNQ/YIRYIBQMNSsiARIwAoCXGKwgiLLIIHXJ8AA4fUZ8Q0SIIFxREDyILwt0osHA9XcpDiO7EJRJh4BBggTz6bUiARIgARIgATeMAEGCG8YIQsgARIoJAE55rg4HsIabylMyI4EPiRAAvkgwAAhH1RZJgmQQN4IcA9C3tCyYBI4igADBDoECZCArQjInMHUVAx7XD6mWraV5Sis3QgwQLCbxSgvCZAAvKaBuKaTBAmQQB4JMEDII1wWTQIkYD0BLjFYz5QlksDxCDBAoF+QAAnYioAECO+KdOH3wToec7SV5Sis3QgwQLCbxSgvCZAAZHHBIAcSIIG8EmCAkFe8LJwESMBqArJJcXZyGNvdfm5StBouyyOBUQQYINAdSIAEbEWAexBsZS4Ka2MCDBBsbDyKTgLFSEASJZ0RG8LzvnLOIBSjA1DnghFggFAw1KyIBEiABEiABOxDgAGCfWxFSUmABADIZU2XRLrxQKCWpxjoESSQRwIMEPIIl0WTAAlYT4B7EKxnyhJJ4HgE/h+ifpHuOECRCwAAAABJRU5ErkJggg==;" vertex="1" parent="1">
                    <mxGeometry width="836.08" height="410" as="geometry"/>
                </mxCell>
            </root>
        </mxGraphModel>
    </diagram>
</mxfile>
